<?xml version="1.0" ?><svg style="enable-background:new 0 0 32 32;" version="1.1" viewBox="0 0 32 32" xml:space="preserve" xmlns="http://www.w3.org/2000/svg" xmlns:xlink="http://www.w3.org/1999/xlink"><g id="Guides"/><g id="_x32_0"/><g id="_x31_9"/><g id="_x31_8"/><g id="_x31_7"/><g id="_x31_6"/><g id="_x31_5"/><g id="_x31_4"/><g id="_x31_3"/><g id="_x31_2"/><g id="_x31_1"/><g id="_x31_0"/><g id="_x30_9"/><g id="_x30_8"/><g id="_x30_7"/><g id="_x30_6"/><g id="_x30_5"/><g id="_x30_4"/><g id="_x30_3"/><g id="_x30_2"/><g id="_x30_1"><g><path d="M29.8320313,15.4453125l-6-9C23.6464844,6.1669922,23.3344727,6,23,6h-4.2791138l-0.7721558-2.3164063    C17.8125,3.2753906,17.4306641,3,17,3h-5c-0.4306641,0-0.8125,0.2753906-0.9487305,0.6835938L10.2791138,6H3    C2.4477539,6,2,6.4477539,2,7v17c0,0.5522461,0.4477539,1,1,1h2c0,2.2055664,1.7944336,4,4,4s4-1.7944336,4-4h5    c0,2.2055664,1.7944336,4,4,4s4-1.7944336,4-4h3c0.5522461,0,1-0.4477539,1-1v-8    C30,15.8027344,29.9414063,15.609375,29.8320313,15.4453125z M12.7207031,5h3.5585938l0.3334961,1H12.387207L12.7207031,5z M9,27    c-1.1030273,0-2-0.8969727-2-2c0-0.230957,0.0380859-0.4458008,0.1264648-0.6767578C7.3969727,23.5317383,8.1499023,23,9,23    s1.6030273,0.5317383,1.887207,1.3613281C10.9619141,24.5541992,11,24.769043,11,25C11,26.1030273,10.1030273,27,9,27z M22,27    c-1.1030273,0-2-0.8969727-2-2c0-0.230957,0.0380859-0.4458008,0.1264648-0.6767578C20.3969727,23.5317383,21.1499023,23,22,23    s1.6030273,0.5317383,1.887207,1.3613281C23.9619141,24.5541992,24,24.769043,24,25C24,26.1030273,23.1030273,27,22,27z     M25.4609375,23c-0.0692139-0.1213989-0.1489868-0.2348633-0.2299805-0.347229    c-0.0181885-0.0252075-0.0327759-0.0530396-0.0515137-0.0777588c-0.1149902-0.1518555-0.241272-0.2935791-0.3760376-0.4264526    c-0.0386353-0.038147-0.0817261-0.0709229-0.1218872-0.1074219c-0.1000977-0.0909424-0.2023926-0.178894-0.3112183-0.2590942    c-0.0557251-0.0410767-0.1140747-0.0775146-0.171875-0.1156616c-0.1011353-0.0666504-0.2039185-0.1296997-0.3109741-0.1870728    c-0.0645752-0.0346069-0.1298218-0.0667725-0.1963501-0.0977783c-0.1088257-0.0508423-0.2200317-0.0956421-0.3336792-0.1366577    c-0.0678711-0.0244751-0.1350098-0.0494995-0.2044678-0.0703735c-0.1248169-0.0375366-0.2525024-0.0657959-0.3815918-0.0911255    c-0.0614624-0.012085-0.1213989-0.0280151-0.1837158-0.0372314C22.3948975,21.0176392,22.1992188,21,22,21    c-0.1989136,0-0.3942871,0.0175781-0.586731,0.0459595c-0.0646973,0.0095215-0.1268311,0.026062-0.1906128,0.0386353    c-0.1254272,0.0247803-0.2496338,0.0519409-0.3709717,0.0882568c-0.0752563,0.0223999-0.1479492,0.0496216-0.2214355,0.0762939    c-0.1035767,0.0377197-0.2053223,0.0782471-0.3049316,0.1242065c-0.0790405,0.0363159-0.156189,0.074585-0.2324219,0.1157837    c-0.0849609,0.0461426-0.1668701,0.0961914-0.2481689,0.1482544c-0.0813599,0.0518188-0.1619873,0.1034546-0.2391968,0.1609497    c-0.0631714,0.0473022-0.1220093,0.0995483-0.182312,0.1505127c-0.0852661,0.0717773-0.1712646,0.1417847-0.2501221,0.220459    c-0.0165405,0.0165405-0.0305176,0.0356445-0.0467529,0.0524902c-0.1967163,0.2034302-0.3684082,0.4290161-0.5169678,0.6720581    C18.5870972,22.9301758,18.5602417,22.9628906,18.5390625,23H16v-3c0-0.5522461-0.4477539-1-1-1s-1,0.4477539-1,1v3h-1.5390625    c-0.0692139-0.1213989-0.1489868-0.2348633-0.2299805-0.347229c-0.0181885-0.0252075-0.0327759-0.0530396-0.0515137-0.0777588    c-0.1149902-0.1518555-0.241272-0.2935791-0.3760376-0.4264526c-0.0386353-0.038147-0.0817261-0.0709229-0.1218872-0.1074219    c-0.1000977-0.0909424-0.2023926-0.178894-0.3112183-0.2590942c-0.0557251-0.0410767-0.1140747-0.0775146-0.171875-0.1156616    c-0.1011353-0.0666504-0.2039185-0.1296997-0.3109741-0.1870728c-0.0645752-0.0346069-0.1298218-0.0667725-0.1963501-0.0977783    c-0.1088257-0.0508423-0.2200317-0.0956421-0.3336792-0.1366577c-0.0678711-0.0244751-0.1350098-0.0494995-0.2044678-0.0703735    c-0.1248169-0.0375366-0.2525024-0.0657959-0.3815918-0.0911255c-0.0614624-0.012085-0.1213989-0.0280151-0.1837158-0.0372314    C9.3948975,21.0176392,9.1992188,21,9,21c-0.1989136,0-0.3942871,0.0175781-0.586731,0.0459595    c-0.0646973,0.0095215-0.1268311,0.026062-0.1906128,0.0386353c-0.1254272,0.0247803-0.2496338,0.0519409-0.3709717,0.0882568    c-0.0752563,0.0223999-0.1479492,0.0496216-0.2214355,0.0762939c-0.1035767,0.0377197-0.2053223,0.0782471-0.3049316,0.1242065    c-0.0790405,0.0363159-0.156189,0.074585-0.2324219,0.1157837c-0.0849609,0.0461426-0.1668701,0.0961914-0.2481689,0.1482544    c-0.0813599,0.0518188-0.1619873,0.1034546-0.2391968,0.1609497c-0.0631714,0.0473022-0.1220093,0.0995483-0.182312,0.1505127    c-0.0852661,0.0717773-0.1712646,0.1417847-0.2501221,0.220459c-0.0165405,0.0165405-0.0305176,0.0356445-0.0467529,0.0524902    c-0.1967163,0.2034302-0.3684082,0.4290161-0.5169678,0.6720581C5.5870972,22.9301758,5.5602417,22.9628906,5.5390625,23H4V8h7h7    h4.4648438L28,16.3027344v2.3974609h-3c-0.5522461,0-1,0.4477539-1,1s0.4477539,1,1,1h3V23H25.4609375z"/><path d="M23.8574219,15.4853516l-3-5C20.6767578,10.184082,20.3510742,10,20,10h-4c-0.5522461,0-1,0.4477539-1,1v5    c0,0.5522461,0.4477539,1,1,1h7c0.3603516,0,0.6928711-0.1938477,0.8701172-0.5073242    C24.0478516,16.1791992,24.0429688,15.7944336,23.8574219,15.4853516z M17,15v-3h2.4335938l1.800293,3H17z"/><path d="M11,13h-1v-1c0-0.5522461-0.4477539-1-1-1s-1,0.4477539-1,1v1H7c-0.5522461,0-1,0.4477539-1,1s0.4477539,1,1,1h1v1    c0,0.5522461,0.4477539,1,1,1s1-0.4477539,1-1v-1h1c0.5522461,0,1-0.4477539,1-1S11.5522461,13,11,13z"/></g></g></svg>